<svg fill="#293855" xmlns="http://www.w3.org/2000/svg"  viewBox="0 0 50 50" width="25px" height="25px"><path d="M 25.375 8.0566406 C 25.037288 8.0434438 24.695359 8.0471875 24.349609 8.0703125 C 19.306609 8.4083125 15.5 12.829766 15.5 17.884766 L 15.5 17.949219 L 14 17.949219 C 12.346 17.949219 11 19.295219 11 20.949219 L 11 36.5 C 11 37.523723 11.449474 38.437552 12.152344 39.078125 L 10.253906 42.242188 C 10.053906 42.575187 10.294594 43 10.683594 43 L 16 43 C 16.276 43 16.5 42.776 16.5 42.5 L 16.5 39.5 L 16.5 36 L 19.298828 36 L 20.353516 37.757812 C 20.444516 37.908813 20.607203 38 20.783203 38 L 24.5 38 L 24.5 40 L 22.267578 40 C 22.099578 40 21.943563 40.083656 21.851562 40.222656 L 20.519531 42.222656 C 20.297531 42.554656 20.536547 43 20.935547 43 L 29.066406 43 C 29.465406 43 29.703422 42.554656 29.482422 42.222656 L 28.148438 40.222656 C 28.055438 40.083656 27.899422 40 27.732422 40 L 25.5 40 L 25.5 38 L 29.216797 38 C 29.392797 38 29.555484 37.908813 29.646484 37.757812 L 30.701172 36 L 33.5 36 L 33.5 39.5 L 33.5 42.5 C 33.5 42.776 33.724 43 34 43 L 39.316406 43 C 39.705406 43 39.946094 42.575187 39.746094 42.242188 L 37.847656 39.078125 C 38.550526 38.437552 39 37.523723 39 36.5 L 39 20.949219 C 39 19.295219 37.654 17.949219 36 17.949219 L 34.5 17.949219 L 34.5 17.550781 C 34.5 12.437656 30.440686 8.2545923 25.375 8.0566406 z M 24.664062 9.0566406 C 24.96619 9.0448877 25.272719 9.0495625 25.582031 9.0703125 C 30.095031 9.3723125 33.5 13.326609 33.5 17.849609 L 33.5 17.949219 L 23 17.949219 L 23 13.5 C 23 13.224 22.776 13 22.5 13 C 22.224 13 22 13.224 22 13.5 L 22 17.949219 L 16.5 17.949219 L 16.5 17.550781 C 16.5 12.975781 20.132147 9.2329346 24.664062 9.0566406 z M 28 13 C 27.448 13 27 13.448 27 14 C 27 14.552 27.448 15 28 15 C 28.552 15 29 14.552 29 14 C 29 13.448 28.552 13 28 13 z M 14 18.949219 L 15.5 18.949219 L 15.5 35.5 L 15.5 39 L 14.5 39 C 13.122 39 12 37.878 12 36.5 L 12 20.949219 C 12 19.846219 12.897 18.949219 14 18.949219 z M 16.5 18.949219 L 33.5 18.949219 L 33.5 35 L 25.5 35 L 25.5 28.5 C 25.5 28.224 25.276 28 25 28 C 24.724 28 24.5 28.224 24.5 28.5 L 24.5 35 L 16.5 35 L 16.5 18.949219 z M 34.5 18.949219 L 36 18.949219 C 37.103 18.949219 38 19.846219 38 20.949219 L 38 36.5 C 38 37.878 36.878 39 35.5 39 L 34.5 39 L 34.5 35.5 L 34.5 18.949219 z M 22 23 C 21.724 23 21.5 23.224 21.5 23.5 C 21.5 23.776 21.724 24 22 24 L 28 24 C 28.276 24 28.5 23.776 28.5 23.5 C 28.5 23.224 28.276 23 28 23 L 22 23 z"/></svg>